<svg width="20" height="21" viewBox="0 0 20 21" fill="none" xmlns="http://www.w3.org/2000/svg">
<path d="M3.1293 21C2.00487 21 1.29207 20.5909 0.840289 20.1065C-0.0431903 19.1591 -0.665641 17.146 1.32219 12.8721L2.19563 11.0097C2.30606 10.7621 2.30606 10.2454 2.19563 9.99779L1.32219 8.13538C-0.675681 3.86152 -0.0431903 1.83763 0.840289 0.901041C1.71373 -0.0463129 3.60116 -0.724532 7.57681 1.41778L16.1706 6.02536C18.309 7.16649 19.4836 8.75977 19.4836 10.5038C19.4836 12.2478 18.309 13.841 16.1806 14.9822L7.58685 19.5897C5.63919 20.634 4.19349 21 3.1293 21ZM3.1293 1.62232C2.58717 1.62232 2.16551 1.76227 1.90448 2.04217C1.17159 2.81728 1.46274 4.8304 2.66748 7.40333L3.54092 9.27651C3.86219 9.97626 3.86219 11.0313 3.54092 11.731L2.66748 13.5934C1.46274 16.1771 1.17159 18.1795 1.90448 18.9546C2.62733 19.7405 4.50472 19.4283 6.91421 18.1364L15.508 13.5288C17.0842 12.6891 17.9777 11.5803 17.9777 10.493C17.9777 9.40569 17.0742 8.29686 15.498 7.45716L6.90417 2.86034C5.37816 2.04217 4.06298 1.62232 3.1293 1.62232Z" fill="white"/>
<path d="M8.57981 11.3114H3.15841C2.74679 11.3114 2.40545 10.9454 2.40545 10.504C2.40545 10.0626 2.74679 9.69663 3.15841 9.69663H8.57981C8.99143 9.69663 9.33278 10.0626 9.33278 10.504C9.33278 10.9454 8.99143 11.3114 8.57981 11.3114Z" fill="white"/>
</svg>
