<svg width="16" height="20" viewBox="0 0 16 20" fill="none" xmlns="http://www.w3.org/2000/svg">
<path d="M11.4684 4.3217C11.4684 5.26294 11.0928 6.16562 10.4241 6.83118C9.75545 7.49673 8.84854 7.87064 7.9029 7.87064C6.95726 7.87064 6.05036 7.49673 5.38169 6.83118C4.71302 6.16562 4.33736 5.26294 4.33736 4.3217C4.33736 3.38047 4.71302 2.47779 5.38169 1.81223C6.05036 1.14668 6.95726 0.772774 7.9029 0.772774C8.84854 0.772774 9.75545 1.14668 10.4241 1.81223C11.0928 2.47779 11.4684 3.38047 11.4684 4.3217ZM0.772774 17.6827C0.803328 15.8206 1.56797 14.045 2.90181 12.7389C4.23564 11.4327 6.03179 10.7008 7.9029 10.7008C9.77402 10.7008 11.5702 11.4327 12.904 12.7389C14.2378 14.045 15.0025 15.8206 15.033 17.6827C12.7961 18.7036 10.3637 19.2305 7.9029 19.2272C5.35853 19.2272 2.94348 18.6745 0.772774 17.6827Z" stroke="#52525B" stroke-width="1.5" stroke-linecap="round" stroke-linejoin="round"/>
</svg>
