<svg width="19" height="24" viewBox="0 0 19 24" fill="none" xmlns="http://www.w3.org/2000/svg">
<path d="M13.7878 5.08674C13.7878 6.23268 13.3305 7.33169 12.5164 8.14199C11.7023 8.9523 10.5981 9.40752 9.44681 9.40752C8.2955 9.40752 7.19135 8.9523 6.37725 8.14199C5.56316 7.33169 5.1058 6.23268 5.1058 5.08674C5.1058 3.9408 5.56316 2.84179 6.37725 2.03149C7.19135 1.22118 8.2955 0.765957 9.44681 0.765957C10.5981 0.765957 11.7023 1.22118 12.5164 2.03149C13.3305 2.84179 13.7878 3.9408 13.7878 5.08674ZM0.765957 21.3536C0.803157 19.0865 1.7341 16.9247 3.35803 15.3345C4.98196 13.7444 7.16875 12.8532 9.44681 12.8532C11.7249 12.8532 13.9117 13.7444 15.5356 15.3345C17.1595 16.9247 18.0905 19.0865 18.1277 21.3536C15.4043 22.5966 12.4428 23.2381 9.44681 23.234C6.34907 23.234 3.40876 22.5611 0.765957 21.3536Z" stroke="#DB2777" stroke-width="1.5" stroke-linecap="round" stroke-linejoin="round"/>
</svg>
